<svg xmlns="http://www.w3.org/2000/svg" xmlns:xlink="http://www.w3.org/1999/xlink"><symbol id="icon-close" viewBox="0 0 20 20"><path d="M.293 18.291a1 1 0 101.414 1.414L10 11.413l8.292 8.292a1 1 0 101.414-1.414l-8.292-8.292 8.292-8.292A1 1 0 1018.291.293L9.999 8.585 1.707.293A1 1 0 10.293 1.707L8.585 10 .293 18.291z"/></symbol><symbol id="icon-mini-twitter" viewBox="0 0 39 39">
<path fill-rule="evenodd" clip-rule="evenodd" d="M19.5 39C30.2696 39 39 30.2696 39 19.5C39 8.73045 30.2696 0 19.5 0C8.73045 0 0 8.73045 0 19.5C0 30.2696 8.73045 39 19.5 39ZM37.5 19.5C37.5 29.4411 29.4411 37.5 19.5 37.5C9.55887 37.5 1.5 29.4411 1.5 19.5C1.5 9.55887 9.55887 1.5 19.5 1.5C29.4411 1.5 37.5 9.55887 37.5 19.5ZM26.7246 17.4681C26.7246 17.3178 26.7246 17.1689 26.7143 17.02C27.3916 16.5293 27.977 15.9219 28.4417 15.2247C27.8104 15.5053 27.14 15.6893 26.4538 15.7702C27.1763 15.3372 27.7172 14.6557 27.9756 13.8535C27.2956 14.257 26.5525 14.5418 25.7773 14.6949C24.4666 13.2997 22.2738 13.2324 20.8795 14.5446C19.9801 15.3907 19.599 16.6521 19.878 17.8558C17.0942 17.7165 14.5011 16.4002 12.7435 14.2351C11.8249 15.819 12.2938 17.8449 13.8149 18.8626C13.2638 18.8461 12.725 18.6972 12.2438 18.4289V18.4728C12.2438 20.1226 13.4056 21.5432 15.0206 21.8699C14.5113 22.0092 13.9767 22.0298 13.4577 21.9296C13.9115 23.3412 15.2105 24.3082 16.6919 24.3363C15.4655 25.3005 13.9513 25.8242 12.3925 25.8228C12.1169 25.8221 11.8421 25.8056 11.5686 25.7727C13.152 26.7898 14.9939 27.3292 16.8749 27.3264V27.3292C23.2423 27.3292 26.7246 22.0476 26.7246 17.4681Z" fill="white"/>
</symbol><symbol id="icon-twitter" viewBox="0 0 100 84">
<path d="M89.4961 21.1194C89.5565 22.013 89.5566 22.9065 89.5566 23.8082C89.5566 51.2853 69.0727 82.9747 31.617 82.9747V82.9582C20.5525 82.9747 9.71784 79.7383 0.40332 73.6359C2.01219 73.8335 3.62913 73.9324 5.25009 73.9365C14.4195 73.9447 23.3267 70.8029 30.5404 65.0177C21.8267 64.8488 14.1856 59.0471 11.5162 50.5771C14.5686 51.1782 17.7138 51.0547 20.7098 50.2188C11.2098 48.2588 4.37509 39.7353 4.37509 29.8365C4.37509 29.7459 4.37509 29.6594 4.37509 29.573C7.20574 31.183 10.3751 32.0765 13.617 32.1753C4.66945 26.0688 1.91138 13.9135 7.31461 4.41001C17.6533 17.4012 32.9074 25.2988 49.2824 26.1347C47.6412 18.9124 49.8832 11.3441 55.1735 6.26707C63.3751 -1.60587 76.2743 -1.20234 83.984 7.16883C88.5445 6.2506 92.9154 4.54178 96.9154 2.1206C95.3953 6.93413 92.2138 11.023 87.9638 13.6212C92.0001 13.1353 95.9436 12.0318 99.6574 10.3477C96.9235 14.5312 93.4799 18.1753 89.4961 21.1194Z" fill="white"/>
</symbol><symbol id="icon-union" viewBox="0 0 62 71">
<path fill-rule="evenodd" clip-rule="evenodd" d="M62 17.75L31 0L0 17.75V53.25L31 71L62 53.25V17.75ZM31 3.28249L59.1336 19.3912V51.6087L31 67.7175L2.8664 51.6087V19.3912L31 3.28249ZM19.2596 31.0114C18.4375 30.3157 17.207 30.4183 16.5114 31.2404C15.8157 32.0625 15.9183 33.293 16.7404 33.9886L29.7404 44.9886C30.4675 45.6038 31.5325 45.6038 32.2596 44.9886L45.2596 33.9886C46.0817 33.293 46.1843 32.0625 45.4886 31.2404C44.793 30.4183 43.5625 30.3157 42.7404 31.0114L31 40.9456L19.2596 31.0114Z" fill="#FF8B00"/>
</symbol></svg>